<svg width="1440" height="12564" viewBox="0 0 1440 12564" fill="none" xmlns="http://www.w3.org/2000/svg">
<g clip-path="url(#clip0_81_2406)">
<rect width="1440" height="12564" fill="white"/>
<line opacity="0.32" x1="1406.5" y1="907" x2="1406.5" y2="1829" stroke="#030605"/>
<line opacity="0.32" x1="23.5" y1="2380" x2="23.5" y2="3302" stroke="#030605"/>
<line opacity="0.32" x1="1390.5" y1="3782" x2="1390.5" y2="4704" stroke="#030605"/>
<line opacity="0.32" x1="1371.5" y1="5157" x2="1371.5" y2="6079" stroke="#030605"/>
<line opacity="0.32" x1="67.5" y1="6443" x2="67.5" y2="7365" stroke="#030605"/>
<g opacity="0.1" filter="url(#filter0_f_81_2406)">
<path d="M915.882 2861.21C901.588 2807.86 933.246 2753.03 986.593 2738.74L1287.44 2658.12C1340.79 2643.83 1395.62 2675.49 1409.92 2728.83L1490.53 3029.68C1504.82 3083.03 1473.16 3137.86 1419.82 3152.16L1118.97 3232.77C1065.62 3247.06 1010.79 3215.41 996.494 3162.06L915.882 2861.21Z" fill="#147AFF"/>
<path d="M-83.9934 2515.8C-98.2875 2462.45 -66.6293 2407.62 -13.2827 2393.32L287.566 2312.71C340.912 2298.42 395.746 2330.08 410.04 2383.42L490.653 2684.27C504.947 2737.62 473.289 2792.45 419.942 2806.75L119.093 2887.36C65.7469 2901.65 10.9131 2869.99 -3.3811 2816.65L-83.9934 2515.8Z" fill="#147AFF"/>
<path d="M-83.9929 4060.3C-98.2871 4006.95 -66.6288 3952.12 -13.2822 3937.83L287.566 3857.21C340.913 3842.92 395.747 3874.58 410.041 3927.92L490.653 4228.77C504.947 4282.12 473.289 4336.95 419.942 4351.25L119.094 4431.86C65.7471 4446.15 10.9133 4414.49 -3.38088 4361.15L-83.9929 4060.3Z" fill="#147AFF"/>
</g>
<g opacity="0.1" filter="url(#filter1_f_81_2406)">
<path d="M-119.118 5172.97C-133.412 5119.62 -101.754 5064.79 -48.4074 5050.49L252.442 4969.88C305.788 4955.59 360.622 4987.25 374.916 5040.59L455.528 5341.44C469.822 5394.79 438.164 5449.62 384.818 5463.92L83.9686 5544.53C30.6219 5558.82 -24.2117 5527.16 -38.5059 5473.82L-119.118 5172.97Z" fill="#147AFF" fill-opacity="0.73"/>
</g>
<g opacity="0.1" filter="url(#filter2_f_81_2406)">
<path d="M15.8819 6984.97C1.58771 6931.62 33.246 6876.79 86.5926 6862.49L387.442 6781.88C440.788 6767.59 495.622 6799.25 509.916 6852.59L590.528 7153.44C604.822 7206.79 573.164 7261.62 519.818 7275.92L218.969 7356.53C165.622 7370.82 110.788 7339.16 96.4941 7285.82L15.8819 6984.97Z" fill="#147AFF" fill-opacity="0.73"/>
</g>
<g opacity="0.1" filter="url(#filter3_f_81_2406)">
<path d="M842.882 8077.97C828.588 8024.62 860.246 7969.79 913.593 7955.49L1214.44 7874.88C1267.79 7860.59 1322.62 7892.25 1336.92 7945.59L1417.53 8246.44C1431.82 8299.79 1400.16 8354.62 1346.82 8368.92L1045.97 8449.53C992.622 8463.82 937.788 8432.16 923.494 8378.82L842.882 8077.97Z" fill="#147AFF" fill-opacity="0.73"/>
</g>
<g opacity="0.1" filter="url(#filter4_f_81_2406)">
<path d="M2.88189 8950.97C-11.4123 8897.62 20.246 8842.79 73.5926 8828.49L374.442 8747.88C427.788 8733.59 482.622 8765.25 496.916 8818.59L577.528 9119.44C591.822 9172.79 560.164 9227.62 506.818 9241.92L205.969 9322.53C152.622 9336.82 97.7883 9305.16 83.4941 9251.82L2.88189 8950.97Z" fill="#147AFF" fill-opacity="0.73"/>
</g>
<g opacity="0.1" filter="url(#filter5_f_81_2406)">
<path d="M927.882 6754.97C913.588 6701.62 945.246 6646.79 998.593 6632.49L1299.44 6551.88C1352.79 6537.59 1407.62 6569.25 1421.92 6622.59L1502.53 6923.44C1516.82 6976.79 1485.16 7031.62 1431.82 7045.92L1130.97 7126.53C1077.62 7140.82 1022.79 7109.16 1008.49 7055.82L927.882 6754.97Z" fill="#147AFF" fill-opacity="0.73"/>
</g>
<g opacity="0.1" filter="url(#filter6_f_81_2406)">
<path d="M-86.1181 6938.97C-100.412 6885.62 -68.754 6830.79 -15.4074 6816.49L285.442 6735.88C338.788 6721.59 393.622 6753.25 407.916 6806.59L488.528 7107.44C502.822 7160.79 471.164 7215.62 417.818 7229.92L116.969 7310.53C63.6219 7324.82 8.78831 7293.16 -5.50588 7239.82L-86.1181 6938.97Z" fill="#147AFF" fill-opacity="0.73"/>
</g>
<g opacity="0.1" filter="url(#filter7_f_81_2406)">
<path d="M984.88 6237.73C970.586 6184.38 1002.24 6129.55 1055.59 6115.25L1356.44 6034.64C1409.79 6020.35 1464.62 6052 1478.91 6105.35L1559.53 6406.2C1573.82 6459.55 1542.16 6514.38 1488.82 6528.67L1187.97 6609.29C1134.62 6623.58 1079.79 6591.92 1065.49 6538.58L984.88 6237.73Z" fill="#147AFF" fill-opacity="0.73"/>
</g>
<line opacity="0.32" x1="711" y1="2544.5" x2="23" y2="2544.5" stroke="#030605"/>
<rect y="8988" width="1440" height="1176" fill="white"/>
<g opacity="0.1" filter="url(#filter8_f_81_2406)">
<path d="M-254.118 8918.97C-268.412 8865.62 -236.754 8810.79 -183.407 8796.49L117.442 8715.88C170.788 8701.59 225.622 8733.25 239.916 8786.59L320.528 9087.44C334.822 9140.79 303.164 9195.62 249.818 9209.92L-51.0314 9290.53C-104.378 9304.82 -159.212 9273.16 -173.506 9219.82L-254.118 8918.97Z" fill="#147AFF" fill-opacity="0.73"/>
</g>
<g opacity="0.1" filter="url(#filter9_f_81_2406)">
<path d="M938.882 9178.97C924.588 9125.62 956.246 9070.79 1009.59 9056.49L1310.44 8975.88C1363.79 8961.59 1418.62 8993.25 1432.92 9046.59L1513.53 9347.44C1527.82 9400.79 1496.16 9455.62 1442.82 9469.92L1141.97 9550.53C1088.62 9564.82 1033.79 9533.16 1019.49 9479.82L938.882 9178.97Z" fill="#147AFF" fill-opacity="0.73"/>
</g>
<g opacity="0.1" filter="url(#filter10_f_81_2406)">
<path d="M-122.118 9839.97C-136.412 9786.62 -104.754 9731.79 -51.4074 9717.49L249.442 9636.88C302.788 9622.59 357.622 9654.25 371.916 9707.59L452.528 10008.4C466.822 10061.8 435.164 10116.6 381.818 10130.9L80.9686 10211.5C27.6219 10225.8 -27.2117 10194.2 -41.5059 10140.8L-122.118 9839.97Z" fill="#147AFF" fill-opacity="0.73"/>
</g>
<g opacity="0.1" filter="url(#filter11_f_81_2406)">
<path d="M909.882 1482.97C895.588 1429.62 927.246 1374.79 980.593 1360.49L1281.44 1279.88C1334.79 1265.59 1389.62 1297.25 1403.92 1350.59L1484.53 1651.44C1498.82 1704.79 1467.16 1759.62 1413.82 1773.92L1112.97 1854.53C1059.62 1868.82 1004.79 1837.16 990.494 1783.82L909.882 1482.97Z" fill="#147AFF"/>
</g>
<g opacity="0.1" filter="url(#filter12_f_81_2406)">
<path d="M-58.1181 822.969C-72.4123 769.622 -40.754 714.788 12.5926 700.494L313.442 619.882C366.788 605.588 421.622 637.246 435.916 690.593L516.528 991.442C530.822 1044.79 499.164 1099.62 445.818 1113.92L144.969 1194.53C91.6219 1208.82 36.7883 1177.16 22.4941 1123.82L-58.1181 822.969Z" fill="#147AFF"/>
</g>
</g>
<defs>
<filter id="filter0_f_81_2406" x="-219.426" y="2177.28" width="1845.39" height="2390.01" filterUnits="userSpaceOnUse" color-interpolation-filters="sRGB">
<feFlood flood-opacity="0" result="BackgroundImageFix"/>
<feBlend mode="normal" in="SourceGraphic" in2="BackgroundImageFix" result="shape"/>
<feGaussianBlur stdDeviation="66" result="effect1_foregroundBlur_81_2406"/>
</filter>
<filter id="filter1_f_81_2406" x="-254.551" y="4834.45" width="845.511" height="845.511" filterUnits="userSpaceOnUse" color-interpolation-filters="sRGB">
<feFlood flood-opacity="0" result="BackgroundImageFix"/>
<feBlend mode="normal" in="SourceGraphic" in2="BackgroundImageFix" result="shape"/>
<feGaussianBlur stdDeviation="66" result="effect1_foregroundBlur_81_2406"/>
</filter>
<filter id="filter2_f_81_2406" x="-119.551" y="6646.45" width="845.511" height="845.511" filterUnits="userSpaceOnUse" color-interpolation-filters="sRGB">
<feFlood flood-opacity="0" result="BackgroundImageFix"/>
<feBlend mode="normal" in="SourceGraphic" in2="BackgroundImageFix" result="shape"/>
<feGaussianBlur stdDeviation="66" result="effect1_foregroundBlur_81_2406"/>
</filter>
<filter id="filter3_f_81_2406" x="707.449" y="7739.45" width="845.511" height="845.511" filterUnits="userSpaceOnUse" color-interpolation-filters="sRGB">
<feFlood flood-opacity="0" result="BackgroundImageFix"/>
<feBlend mode="normal" in="SourceGraphic" in2="BackgroundImageFix" result="shape"/>
<feGaussianBlur stdDeviation="66" result="effect1_foregroundBlur_81_2406"/>
</filter>
<filter id="filter4_f_81_2406" x="-132.551" y="8612.45" width="845.511" height="845.51" filterUnits="userSpaceOnUse" color-interpolation-filters="sRGB">
<feFlood flood-opacity="0" result="BackgroundImageFix"/>
<feBlend mode="normal" in="SourceGraphic" in2="BackgroundImageFix" result="shape"/>
<feGaussianBlur stdDeviation="66" result="effect1_foregroundBlur_81_2406"/>
</filter>
<filter id="filter5_f_81_2406" x="792.449" y="6416.45" width="845.511" height="845.511" filterUnits="userSpaceOnUse" color-interpolation-filters="sRGB">
<feFlood flood-opacity="0" result="BackgroundImageFix"/>
<feBlend mode="normal" in="SourceGraphic" in2="BackgroundImageFix" result="shape"/>
<feGaussianBlur stdDeviation="66" result="effect1_foregroundBlur_81_2406"/>
</filter>
<filter id="filter6_f_81_2406" x="-221.551" y="6600.45" width="845.511" height="845.511" filterUnits="userSpaceOnUse" color-interpolation-filters="sRGB">
<feFlood flood-opacity="0" result="BackgroundImageFix"/>
<feBlend mode="normal" in="SourceGraphic" in2="BackgroundImageFix" result="shape"/>
<feGaussianBlur stdDeviation="66" result="effect1_foregroundBlur_81_2406"/>
</filter>
<filter id="filter7_f_81_2406" x="849.447" y="5899.21" width="845.511" height="845.511" filterUnits="userSpaceOnUse" color-interpolation-filters="sRGB">
<feFlood flood-opacity="0" result="BackgroundImageFix"/>
<feBlend mode="normal" in="SourceGraphic" in2="BackgroundImageFix" result="shape"/>
<feGaussianBlur stdDeviation="66" result="effect1_foregroundBlur_81_2406"/>
</filter>
<filter id="filter8_f_81_2406" x="-389.551" y="8580.45" width="845.511" height="845.51" filterUnits="userSpaceOnUse" color-interpolation-filters="sRGB">
<feFlood flood-opacity="0" result="BackgroundImageFix"/>
<feBlend mode="normal" in="SourceGraphic" in2="BackgroundImageFix" result="shape"/>
<feGaussianBlur stdDeviation="66" result="effect1_foregroundBlur_81_2406"/>
</filter>
<filter id="filter9_f_81_2406" x="803.449" y="8840.45" width="845.511" height="845.511" filterUnits="userSpaceOnUse" color-interpolation-filters="sRGB">
<feFlood flood-opacity="0" result="BackgroundImageFix"/>
<feBlend mode="normal" in="SourceGraphic" in2="BackgroundImageFix" result="shape"/>
<feGaussianBlur stdDeviation="66" result="effect1_foregroundBlur_81_2406"/>
</filter>
<filter id="filter10_f_81_2406" x="-257.551" y="9501.45" width="845.511" height="845.511" filterUnits="userSpaceOnUse" color-interpolation-filters="sRGB">
<feFlood flood-opacity="0" result="BackgroundImageFix"/>
<feBlend mode="normal" in="SourceGraphic" in2="BackgroundImageFix" result="shape"/>
<feGaussianBlur stdDeviation="66" result="effect1_foregroundBlur_81_2406"/>
</filter>
<filter id="filter11_f_81_2406" x="774.449" y="1144.45" width="845.511" height="845.511" filterUnits="userSpaceOnUse" color-interpolation-filters="sRGB">
<feFlood flood-opacity="0" result="BackgroundImageFix"/>
<feBlend mode="normal" in="SourceGraphic" in2="BackgroundImageFix" result="shape"/>
<feGaussianBlur stdDeviation="66" result="effect1_foregroundBlur_81_2406"/>
</filter>
<filter id="filter12_f_81_2406" x="-193.551" y="484.45" width="845.511" height="845.511" filterUnits="userSpaceOnUse" color-interpolation-filters="sRGB">
<feFlood flood-opacity="0" result="BackgroundImageFix"/>
<feBlend mode="normal" in="SourceGraphic" in2="BackgroundImageFix" result="shape"/>
<feGaussianBlur stdDeviation="66" result="effect1_foregroundBlur_81_2406"/>
</filter>
<clipPath id="clip0_81_2406">
<rect width="1440" height="12564" fill="white"/>
</clipPath>
</defs>
</svg>
