<svg width="37" height="37" viewBox="0 0 37 37" fill="none" xmlns="http://www.w3.org/2000/svg">
<rect x="0.199219" y="0.349609" width="36" height="36" rx="8" fill="#E7E6F2"/>
<path fill-rule="evenodd" clip-rule="evenodd" d="M9.19922 18.3496C9.19922 14.7545 9.19922 12.9569 10.0559 11.6622C10.4385 11.084 10.9336 10.5889 11.5118 10.2063C12.8065 9.34961 14.6041 9.34961 18.1992 9.34961C21.7944 9.34961 23.5919 9.34961 24.8867 10.2063C25.4648 10.5889 25.96 11.084 26.3425 11.6622C27.1992 12.9569 27.1992 14.7545 27.1992 18.3496C27.1992 21.9447 27.1992 23.7423 26.3425 25.0371C25.96 25.6152 25.4648 26.1104 24.8867 26.4929C23.5919 27.3496 21.7944 27.3496 18.1992 27.3496C14.6041 27.3496 12.8065 27.3496 11.5118 26.4929C10.9336 26.1104 10.4385 25.6152 10.0559 25.0371C9.19922 23.7423 9.19922 21.9447 9.19922 18.3496ZM22.8585 18.3498C22.8585 20.9232 20.7724 23.0092 18.1991 23.0092C15.6257 23.0092 13.5396 20.9232 13.5396 18.3498C13.5396 15.7765 15.6257 13.6904 18.1991 13.6904C20.7724 13.6904 22.8585 15.7765 22.8585 18.3498ZM18.1991 21.4328C19.9018 21.4328 21.2821 20.0525 21.2821 18.3498C21.2821 16.6471 19.9018 15.2668 18.1991 15.2668C16.4964 15.2668 15.1161 16.6471 15.1161 18.3498C15.1161 20.0525 16.4964 21.4328 18.1991 21.4328ZM23.0425 14.5512C23.6471 14.5512 24.1373 14.061 24.1373 13.4563C24.1373 12.8517 23.6471 12.3615 23.0425 12.3615C22.4378 12.3615 21.9477 12.8517 21.9477 13.4563C21.9477 14.061 22.4378 14.5512 23.0425 14.5512Z" fill="#7B95B7"/>
</svg>
