<svg width="37" height="37" viewBox="0 0 37 37" fill="none" xmlns="http://www.w3.org/2000/svg">
<rect x="0.199219" y="0.349609" width="36" height="36" rx="8" fill="#E7E6F2"/>
<path d="M9.19922 11.7697C9.19922 11.1924 9.40193 10.7163 9.80733 10.3411C10.2127 9.9659 10.7398 9.77832 11.3884 9.77832C12.0255 9.77832 12.5409 9.96301 12.9347 10.3324C13.3401 10.7134 13.5428 11.2098 13.5428 11.8216C13.5428 12.3757 13.3459 12.8375 12.9521 13.2069C12.5467 13.5878 12.0139 13.7783 11.3537 13.7783H11.3363C10.6992 13.7783 10.1838 13.5878 9.78995 13.2069C9.39612 12.8259 9.19922 12.3469 9.19922 11.7697ZM9.42509 26.9212V15.3541H13.2822V26.9212H9.42509ZM15.4193 26.9212H19.2764V20.4623C19.2764 20.0582 19.3228 19.7466 19.4154 19.5272C19.5776 19.1347 19.8237 18.8028 20.1539 18.5316C20.484 18.2603 20.8981 18.1246 21.3961 18.1246C22.6934 18.1246 23.3421 18.9962 23.3421 20.7394V26.9212H27.1992V20.2891C27.1992 18.5806 26.7938 17.2848 25.983 16.4017C25.1722 15.5186 24.1008 15.077 22.7687 15.077C21.2745 15.077 20.1104 15.7177 19.2764 16.9991V17.0337H19.2591L19.2764 16.9991V15.3541H15.4193C15.4425 15.7235 15.454 16.8721 15.454 18.8C15.454 20.7278 15.4425 23.4349 15.4193 26.9212Z" fill="#7B95B7"/>
</svg>
