<svg width="37" height="37" viewBox="0 0 37 37" fill="none" xmlns="http://www.w3.org/2000/svg">
<rect x="0.199219" y="0.349609" width="36" height="36" rx="8" fill="#E7E6F2"/>
<path d="M21.2263 11.0511V11.0479H22.0703L22.3787 11.1094C22.5843 11.1494 22.7709 11.2018 22.9386 11.2667C23.1064 11.3315 23.2687 11.4071 23.4255 11.4936C23.5825 11.58 23.7247 11.6681 23.8524 11.7578C23.979 11.8464 24.0927 11.9404 24.1933 12.0398C24.2928 12.1403 24.4481 12.1662 24.6591 12.1176C24.8701 12.069 25.0973 12.0014 25.3408 11.915C25.5842 11.8286 25.825 11.7313 26.0631 11.6233C26.3011 11.5152 26.4461 11.4466 26.4981 11.4174C26.5489 11.3872 26.576 11.3709 26.5792 11.3688L26.5824 11.3639L26.5987 11.3558L26.6149 11.3477L26.6311 11.3396L26.6474 11.3315L26.6506 11.3266L26.6555 11.3234L26.6604 11.3202L26.6636 11.3153L26.6798 11.3104L26.6961 11.3072L26.6928 11.3315L26.6879 11.3558L26.6798 11.3801L26.6717 11.4044L26.6636 11.4206L26.6555 11.4369L26.6474 11.4612C26.642 11.4774 26.6366 11.499 26.6311 11.526C26.6257 11.553 26.5743 11.6611 26.4769 11.8502C26.3796 12.0393 26.2578 12.2311 26.1118 12.4256C25.9657 12.6201 25.8348 12.767 25.719 12.8664C25.6021 12.9669 25.5247 13.0372 25.4869 13.0771C25.449 13.1182 25.403 13.156 25.3489 13.1906L25.2677 13.2441L25.2515 13.2522L25.2353 13.2603L25.2321 13.2652L25.2272 13.2684L25.2223 13.2716L25.2191 13.2765L25.2028 13.2846L25.1866 13.2927L25.1834 13.2976L25.1785 13.3008L25.1736 13.3041L25.1704 13.3089L25.1671 13.3138L25.1622 13.317L25.1574 13.3203L25.1541 13.3251H25.2353L25.6898 13.2279C25.9927 13.163 26.2822 13.0847 26.5581 12.9929L26.9963 12.847L27.045 12.8308L27.0694 12.8227L27.0856 12.8146L27.1018 12.8065L27.1181 12.7984L27.1343 12.7903L27.1668 12.7854L27.1992 12.7822V12.8146L27.1911 12.8178L27.183 12.8227L27.1798 12.8275L27.1749 12.8308L27.17 12.834L27.1668 12.8389L27.1635 12.8437L27.1586 12.847L27.1538 12.8502L27.1505 12.8551L27.1473 12.86L27.1424 12.8632L27.1343 12.8794L27.1262 12.8956L27.1213 12.8989C27.1192 12.9021 27.0504 12.9939 26.9152 13.1744C26.7799 13.3559 26.7069 13.4478 26.6961 13.4499C26.6853 13.4532 26.6701 13.4694 26.6506 13.4986C26.6322 13.5288 26.5175 13.6493 26.3065 13.86C26.0955 14.0707 25.8889 14.2582 25.6865 14.4224C25.4831 14.5878 25.3803 14.7909 25.3781 15.0319C25.3749 15.2718 25.3624 15.543 25.3408 15.8455C25.3192 16.1481 25.2786 16.475 25.2191 16.8261C25.1596 17.1773 25.0676 17.5744 24.9431 18.0175C24.8187 18.4605 24.6672 18.8927 24.4887 19.3141C24.3101 19.7356 24.1235 20.1137 23.9287 20.4487C23.7339 20.7837 23.5554 21.0674 23.3931 21.2997C23.2308 21.532 23.0658 21.7508 22.898 21.9561C22.7303 22.1614 22.5183 22.3927 22.2618 22.6498C22.0043 22.9059 21.8636 23.0464 21.8398 23.0712C21.8149 23.095 21.7089 23.1836 21.5217 23.3371C21.3356 23.4916 21.1354 23.6461 20.9211 23.8006C20.708 23.9541 20.5121 24.0821 20.3336 24.1848C20.155 24.2874 19.9397 24.4046 19.6876 24.5365C19.4366 24.6694 19.165 24.7926 18.8728 24.906C18.5806 25.0195 18.2723 25.1249 17.9476 25.2221C17.623 25.3194 17.3092 25.395 17.0063 25.449C16.7033 25.503 16.3597 25.549 15.9756 25.5868L15.3994 25.6435V25.6516H14.3444V25.6435L14.2064 25.6354C14.1145 25.63 14.0387 25.6246 13.9792 25.6192C13.9197 25.6138 13.6952 25.5841 13.3056 25.5301C12.9161 25.476 12.6104 25.422 12.3886 25.368C12.1668 25.314 11.8367 25.2113 11.3985 25.06C10.9603 24.9087 10.5853 24.7558 10.2737 24.6013C9.96316 24.4479 9.76839 24.3506 9.68939 24.3096C9.61148 24.2696 9.52384 24.2199 9.42645 24.1605L9.28037 24.0713L9.27714 24.0664L9.27226 24.0632L9.26739 24.06L9.26414 24.0551L9.24791 24.047L9.23168 24.0389L9.22845 24.034L9.22357 24.0308L9.2187 24.0275L9.21545 24.0227L9.21222 24.0178L9.20733 24.0146H9.19922V23.9822L9.21545 23.9854L9.23168 23.9903L9.30472 23.9984C9.35341 24.0038 9.48597 24.0119 9.70237 24.0227C9.9188 24.0335 10.1487 24.0335 10.3922 24.0227C10.6356 24.0119 10.8845 23.9876 11.1388 23.9497C11.3931 23.9119 11.6934 23.8471 12.0396 23.7552C12.3859 23.6634 12.704 23.5543 12.994 23.4278C13.2829 23.3003 13.4885 23.2052 13.6108 23.1426C13.732 23.081 13.917 22.9664 14.1659 22.7989L14.5392 22.5477L14.5424 22.5429L14.5473 22.5396L14.5522 22.5364L14.5554 22.5315L14.5586 22.5266L14.5635 22.5234L14.5684 22.5202L14.5716 22.5153L14.5879 22.5104L14.6041 22.5072L14.6073 22.491L14.6122 22.4748L14.6171 22.4715L14.6203 22.4667L14.4905 22.4586C14.4039 22.4532 14.32 22.4478 14.2389 22.4424C14.1577 22.437 14.0306 22.4127 13.8575 22.3694C13.6844 22.3262 13.4977 22.2614 13.2975 22.1749C13.0973 22.0885 12.9026 21.9858 12.7132 21.867C12.5238 21.7481 12.387 21.6492 12.3026 21.5704C12.2192 21.4925 12.111 21.3823 11.9779 21.2397C11.8459 21.096 11.7312 20.9485 11.6338 20.7972C11.5365 20.6459 11.4434 20.4714 11.3547 20.2737L11.22 19.9787L11.2118 19.9544L11.2037 19.9301L11.1989 19.9139L11.1956 19.8976L11.22 19.9009L11.2443 19.9057L11.4228 19.9301C11.5419 19.9463 11.7285 19.9517 11.9828 19.9463C12.2371 19.9409 12.4129 19.9301 12.5103 19.9139C12.6077 19.8976 12.6672 19.8868 12.6888 19.8814L12.7213 19.8733L12.7619 19.8652L12.8025 19.8571L12.8057 19.8523L12.8106 19.849L12.8155 19.8458L12.8187 19.8409L12.7862 19.8328L12.7538 19.8247L12.7213 19.8166L12.6888 19.8085L12.6564 19.8004C12.6348 19.795 12.5969 19.7842 12.5428 19.768C12.4887 19.7518 12.3426 19.6923 12.1045 19.5897C11.8665 19.487 11.6771 19.3871 11.5365 19.2898C11.3954 19.1923 11.261 19.0856 11.1339 18.9705C11.0073 18.8538 10.8683 18.7036 10.7168 18.5199C10.5653 18.3362 10.4301 18.1228 10.311 17.8797C10.192 17.6366 10.1027 17.4043 10.0432 17.1827C9.98394 16.9625 9.94483 16.7374 9.92638 16.5101L9.89714 16.1697L9.91338 16.173L9.92961 16.1778L9.94584 16.1859L9.96207 16.194L9.9783 16.2021L9.99453 16.2102L10.2461 16.3237C10.4138 16.3993 10.6221 16.4642 10.871 16.5182C11.1199 16.5722 11.2687 16.6019 11.3173 16.6073L11.3904 16.6154H11.5365L11.5332 16.6106L11.5283 16.6073L11.5235 16.6041L11.5202 16.5992L11.517 16.5944L11.5121 16.5911L11.5072 16.5879L11.504 16.583L11.4878 16.5749L11.4715 16.5668L11.4683 16.562L11.4634 16.5587L11.4586 16.5555L11.4553 16.5506L11.4391 16.5425L11.4228 16.5344L11.4196 16.5295C11.4164 16.5274 11.3698 16.4928 11.28 16.4258C11.1913 16.3577 11.0982 16.2697 11.0008 16.1616C10.9035 16.0535 10.8061 15.9401 10.7087 15.8212C10.6111 15.7021 10.5242 15.5746 10.449 15.4403C10.3733 15.3053 10.2932 15.1334 10.2088 14.9249C10.1255 14.7174 10.0622 14.5083 10.0189 14.2976C9.9756 14.0869 9.95126 13.8789 9.94584 13.6736C9.94043 13.4683 9.94584 13.2927 9.96207 13.1468C9.9783 13.001 10.0108 12.8362 10.0595 12.6525C10.1081 12.4688 10.1785 12.2743 10.2705 12.069L10.4084 11.761L10.4165 11.7367L10.4246 11.7124L10.4295 11.7092L10.4328 11.7043L10.436 11.6994L10.4409 11.6962L10.4458 11.6994L10.449 11.7043L10.4522 11.7092L10.4571 11.7124L10.462 11.7156L10.4652 11.7205L10.4685 11.7254L10.4733 11.7286L10.4815 11.7448L10.4896 11.761L10.4945 11.7643L10.4977 11.7691L10.7168 12.0123C10.8629 12.1743 11.036 12.3553 11.2362 12.5552C11.4364 12.7551 11.5473 12.8589 11.5689 12.8664C11.5906 12.8751 11.6176 12.8999 11.6501 12.941C11.6825 12.981 11.7907 13.0766 11.9747 13.2279C12.1587 13.3792 12.3994 13.5548 12.697 13.7547C12.9945 13.9546 13.3246 14.1518 13.687 14.3463C14.0495 14.5408 14.4391 14.7163 14.8557 14.873C15.2723 15.0297 15.5644 15.1324 15.7321 15.181C15.8999 15.2296 16.1866 15.2917 16.5924 15.3674C16.9981 15.443 17.3038 15.4917 17.5094 15.5133C17.715 15.5349 17.8557 15.5473 17.9314 15.5505L18.045 15.5538L18.0418 15.5295L18.0369 15.5052L18.0044 15.3026C17.9828 15.1675 17.972 14.9784 17.972 14.7353C17.972 14.4921 17.9909 14.2679 18.0288 14.0626C18.0667 13.8573 18.1235 13.6493 18.1992 13.4386C18.275 13.2279 18.3491 13.0588 18.4216 12.9313C18.4952 12.8048 18.5915 12.6606 18.7105 12.4985C18.8295 12.3364 18.9837 12.1689 19.1731 11.996C19.3624 11.8231 19.5788 11.6692 19.8223 11.5341C20.0658 11.399 20.2903 11.2964 20.4959 11.2261C20.7015 11.1559 20.8746 11.11 21.0153 11.0884C21.1559 11.0668 21.2263 11.0543 21.2263 11.0511Z" fill="#7B95B7"/>
</svg>
