<svg width="37" height="37" viewBox="0 0 37 37" fill="none" xmlns="http://www.w3.org/2000/svg">
<rect x="0.199219" y="0.349609" width="36" height="36" rx="8" fill="#E7E6F2"/>
<path d="M18.6375 25.3298L14.5753 25.2539C13.26 25.2274 11.9415 25.2802 10.6521 25.0061C8.6905 24.5966 8.55154 22.5887 8.40612 20.9045C8.20576 18.5366 8.28333 16.1258 8.66144 13.7777C8.87489 12.4602 9.71492 11.6741 11.014 11.5885C15.3994 11.278 19.8139 11.3148 24.1895 11.4597C24.6516 11.4729 25.1169 11.5455 25.5726 11.6281C27.8219 12.0311 27.8768 14.3064 28.0226 16.2219C28.168 18.1571 28.1066 20.1023 27.8286 22.0243C27.6057 23.6157 27.1791 24.9503 25.3787 25.0791C23.1229 25.2476 20.9189 25.3832 18.6568 25.34C18.6569 25.3298 18.6439 25.3298 18.6375 25.3298ZM16.2493 21.3008C17.9492 20.3034 19.6167 19.3226 21.3069 18.3319C19.6038 17.3345 17.9395 16.3537 16.2493 15.363V21.3008Z" fill="#7B95B7"/>
</svg>
